<mxfile host="65bd71144e">
    <diagram id="k-r2JrAeV55_jZ8_d6lt" name="main">
        <mxGraphModel dx="986" dy="433" grid="1" gridSize="10" guides="1" tooltips="1" connect="1" arrows="1" fold="1" page="1" pageScale="1" pageWidth="850" pageHeight="1100" math="0" shadow="0">
            <root>
                <mxCell id="0"/>
                <mxCell id="1" parent="0"/>
                <mxCell id="5" style="edgeStyle=none;html=1;exitX=0.5;exitY=1;exitDx=0;exitDy=0;entryX=0.5;entryY=0;entryDx=0;entryDy=0;" parent="1" source="2" target="6" edge="1">
                    <mxGeometry relative="1" as="geometry">
                        <mxPoint x="355" y="160" as="targetPoint"/>
                    </mxGeometry>
                </mxCell>
                <mxCell id="2" value="start" style="ellipse;whiteSpace=wrap;html=1;" parent="1" vertex="1">
                    <mxGeometry x="310" y="70" width="50" height="20" as="geometry"/>
                </mxCell>
                <mxCell id="9" style="edgeStyle=none;html=1;entryX=0.5;entryY=0;entryDx=0;entryDy=0;" parent="1" source="6" target="10" edge="1">
                    <mxGeometry relative="1" as="geometry">
                        <mxPoint x="340" y="190" as="targetPoint"/>
                    </mxGeometry>
                </mxCell>
                <mxCell id="6" value="read input and store in&amp;nbsp;&lt;span style=&quot;color: rgb(156, 220, 254); background-color: rgb(31, 31, 31); font-family: Consolas, &amp;quot;Courier New&amp;quot;, monospace; font-size: 14px;&quot;&gt;sqr&lt;br&gt;xinr = (calc # of x)&lt;br&gt;&lt;/span&gt;&lt;span style=&quot;color: rgb(156, 220, 254); font-family: Consolas, &amp;quot;Courier New&amp;quot;, monospace; font-size: 14px; background-color: rgb(31, 31, 31);&quot;&gt;xinc = (calc # of x)&lt;br&gt;&lt;/span&gt;&lt;span style=&quot;color: rgb(156, 220, 254); background-color: rgb(31, 31, 31); font-family: Consolas, &amp;quot;Courier New&amp;quot;, monospace; font-size: 14px;&quot;&gt;numX = total # of x&lt;br&gt;inf = 1000001&lt;br&gt;&lt;/span&gt;" style="rounded=0;whiteSpace=wrap;html=1;" parent="1" vertex="1">
                    <mxGeometry x="235" y="110" width="200" height="90" as="geometry"/>
                </mxCell>
                <mxCell id="14" style="edgeStyle=none;html=1;entryX=0.5;entryY=0;entryDx=0;entryDy=0;" parent="1" source="10" target="19" edge="1">
                    <mxGeometry relative="1" as="geometry">
                        <mxPoint x="325" y="350" as="targetPoint"/>
                    </mxGeometry>
                </mxCell>
                <mxCell id="15" value="No" style="edgeLabel;html=1;align=center;verticalAlign=middle;resizable=0;points=[];" parent="14" vertex="1" connectable="0">
                    <mxGeometry x="-0.44" y="2" relative="1" as="geometry">
                        <mxPoint as="offset"/>
                    </mxGeometry>
                </mxCell>
                <mxCell id="17" style="edgeStyle=orthogonalEdgeStyle;html=1;exitX=1;exitY=0.5;exitDx=0;exitDy=0;entryX=1;entryY=0.5;entryDx=0;entryDy=0;" parent="1" source="10" target="6" edge="1">
                    <mxGeometry relative="1" as="geometry">
                        <Array as="points">
                            <mxPoint x="485" y="260"/>
                            <mxPoint x="485" y="150"/>
                        </Array>
                    </mxGeometry>
                </mxCell>
                <mxCell id="18" value="Yes" style="edgeLabel;html=1;align=center;verticalAlign=middle;resizable=0;points=[];" parent="17" vertex="1" connectable="0">
                    <mxGeometry x="0.36" y="-2" relative="1" as="geometry">
                        <mxPoint as="offset"/>
                    </mxGeometry>
                </mxCell>
                <mxCell id="10" value="more input" style="rhombus;whiteSpace=wrap;html=1;" parent="1" vertex="1">
                    <mxGeometry x="300" y="220" width="80" height="80" as="geometry"/>
                </mxCell>
                <mxCell id="22" style="edgeStyle=orthogonalEdgeStyle;html=1;entryX=0.5;entryY=0;entryDx=0;entryDy=0;" parent="1" source="19" target="MEDIv5kWLHZdcv_akXQG-30" edge="1">
                    <mxGeometry relative="1" as="geometry">
                        <mxPoint x="415" y="440" as="targetPoint"/>
                        <Array as="points"/>
                    </mxGeometry>
                </mxCell>
                <mxCell id="26" style="edgeStyle=orthogonalEdgeStyle;html=1;entryX=0;entryY=0.5;entryDx=0;entryDy=0;" parent="1" source="19" target="25" edge="1">
                    <mxGeometry relative="1" as="geometry"/>
                </mxCell>
                <mxCell id="29" value="No" style="edgeLabel;html=1;align=center;verticalAlign=middle;resizable=0;points=[];" parent="26" vertex="1" connectable="0">
                    <mxGeometry x="0.0689" y="3" relative="1" as="geometry">
                        <mxPoint as="offset"/>
                    </mxGeometry>
                </mxCell>
                <mxCell id="19" value="numX&amp;gt;0" style="rhombus;whiteSpace=wrap;html=1;" parent="1" vertex="1">
                    <mxGeometry x="300" y="340" width="80" height="80" as="geometry"/>
                </mxCell>
                <mxCell id="28" style="edgeStyle=elbowEdgeStyle;html=1;entryX=0;entryY=0.5;entryDx=0;entryDy=0;exitX=0;exitY=0.5;exitDx=0;exitDy=0;" parent="1" source="MEDIv5kWLHZdcv_akXQG-30" target="19" edge="1">
                    <mxGeometry relative="1" as="geometry">
                        <Array as="points">
                            <mxPoint x="235" y="460"/>
                        </Array>
                        <mxPoint x="315" y="480" as="sourcePoint"/>
                    </mxGeometry>
                </mxCell>
                <mxCell id="MEDIv5kWLHZdcv_akXQG-32" style="edgeStyle=none;html=1;entryX=0.5;entryY=0;entryDx=0;entryDy=0;" parent="1" source="25" target="MEDIv5kWLHZdcv_akXQG-31" edge="1">
                    <mxGeometry relative="1" as="geometry"/>
                </mxCell>
                <mxCell id="25" value="print&amp;nbsp;&lt;span style=&quot;color: rgb(156, 220, 254); background-color: rgb(31, 31, 31); font-family: Consolas, &amp;quot;Courier New&amp;quot;, monospace; font-size: 14px;&quot;&gt;iCube&lt;/span&gt;&lt;span style=&quot;color: rgb(156, 220, 254); background-color: rgb(31, 31, 31); font-family: Consolas, &amp;quot;Courier New&amp;quot;, monospace; font-size: 14px;&quot;&gt;&lt;br&gt;&lt;/span&gt;" style="rounded=0;whiteSpace=wrap;html=1;" parent="1" vertex="1">
                    <mxGeometry x="495" y="355" width="120" height="50" as="geometry"/>
                </mxCell>
                <UserObject label="replace &quot;X&quot; with values" link="data:page/id,Qgk8W_iD4lTr3aD-YQSL" id="MEDIv5kWLHZdcv_akXQG-30">
                    <mxCell style="fontColor=#0000EE;fontStyle=4;rounded=1;overflow=hidden;spacing=10;" parent="1" vertex="1">
                        <mxGeometry x="260" y="510" width="160" height="40" as="geometry"/>
                    </mxCell>
                </UserObject>
                <mxCell id="MEDIv5kWLHZdcv_akXQG-31" value="end" style="ellipse;whiteSpace=wrap;html=1;" parent="1" vertex="1">
                    <mxGeometry x="515" y="450" width="80" height="40" as="geometry"/>
                </mxCell>
            </root>
        </mxGraphModel>
    </diagram>
    <diagram id="Qgk8W_iD4lTr3aD-YQSL" name="replace &quot;X&quot; with values">
        <mxGraphModel dx="704" dy="503" grid="1" gridSize="10" guides="1" tooltips="1" connect="1" arrows="1" fold="1" page="1" pageScale="1" pageWidth="850" pageHeight="1100" math="0" shadow="0">
            <root>
                <mxCell id="0"/>
                <mxCell id="1" parent="0"/>
                <mxCell id="ICkG9NfKEOPINY7M2Be0-3" value="" style="edgeStyle=none;html=1;" parent="1" source="UY_qMhE_fvZBI_9MytnV-2" target="9gPu-qE7Jo73VXygzLrJ-1" edge="1">
                    <mxGeometry relative="1" as="geometry"/>
                </mxCell>
                <mxCell id="UY_qMhE_fvZBI_9MytnV-2" value="int i = 0" style="rounded=0;whiteSpace=wrap;html=1;" parent="1" vertex="1">
                    <mxGeometry x="175" y="30" width="65" height="30" as="geometry"/>
                </mxCell>
                <mxCell id="UY_qMhE_fvZBI_9MytnV-8" style="edgeStyle=none;html=1;exitX=0.5;exitY=1;exitDx=0;exitDy=0;" parent="1" edge="1">
                    <mxGeometry relative="1" as="geometry">
                        <mxPoint x="400" y="75" as="sourcePoint"/>
                        <Array as="points">
                            <mxPoint x="260" y="75"/>
                            <mxPoint x="120" y="75"/>
                        </Array>
                    </mxGeometry>
                </mxCell>
                <mxCell id="UY_qMhE_fvZBI_9MytnV-12" value="Yes" style="edgeLabel;html=1;align=center;verticalAlign=middle;resizable=0;points=[];" parent="UY_qMhE_fvZBI_9MytnV-8" vertex="1" connectable="0">
                    <mxGeometry x="-0.5572" y="-4" relative="1" as="geometry">
                        <mxPoint as="offset"/>
                    </mxGeometry>
                </mxCell>
                <mxCell id="UY_qMhE_fvZBI_9MytnV-19" value="" style="edgeStyle=none;html=1;" parent="1" edge="1">
                    <mxGeometry relative="1" as="geometry">
                        <mxPoint x="190" y="150" as="sourcePoint"/>
                    </mxGeometry>
                </mxCell>
                <mxCell id="UY_qMhE_fvZBI_9MytnV-23" value="N" style="edgeLabel;html=1;align=center;verticalAlign=middle;resizable=0;points=[];" parent="UY_qMhE_fvZBI_9MytnV-19" vertex="1" connectable="0">
                    <mxGeometry x="-0.4778" y="1" relative="1" as="geometry">
                        <mxPoint as="offset"/>
                    </mxGeometry>
                </mxCell>
                <mxCell id="UY_qMhE_fvZBI_9MytnV-21" value="" style="edgeStyle=none;html=1;" parent="1" edge="1">
                    <mxGeometry relative="1" as="geometry">
                        <mxPoint x="127.5" y="190" as="sourcePoint"/>
                    </mxGeometry>
                </mxCell>
                <mxCell id="UY_qMhE_fvZBI_9MytnV-22" value="Yes" style="edgeLabel;html=1;align=center;verticalAlign=middle;resizable=0;points=[];" parent="UY_qMhE_fvZBI_9MytnV-21" vertex="1" connectable="0">
                    <mxGeometry x="0.2929" y="-2" relative="1" as="geometry">
                        <mxPoint as="offset"/>
                    </mxGeometry>
                </mxCell>
                <mxCell id="UY_qMhE_fvZBI_9MytnV-28" value="" style="edgeStyle=none;html=1;" parent="1" edge="1">
                    <mxGeometry relative="1" as="geometry">
                        <mxPoint x="425" y="150" as="sourcePoint"/>
                    </mxGeometry>
                </mxCell>
                <mxCell id="UY_qMhE_fvZBI_9MytnV-29" value="N" style="edgeLabel;html=1;align=center;verticalAlign=middle;resizable=0;points=[];" parent="UY_qMhE_fvZBI_9MytnV-28" vertex="1" connectable="0">
                    <mxGeometry x="-0.6" y="-1" relative="1" as="geometry">
                        <mxPoint as="offset"/>
                    </mxGeometry>
                </mxCell>
                <mxCell id="3isYHylof7BF-UgM5UAG-7" value="" style="edgeStyle=none;html=1;" parent="1" source="3isYHylof7BF-UgM5UAG-1" target="3isYHylof7BF-UgM5UAG-6" edge="1">
                    <mxGeometry relative="1" as="geometry"/>
                </mxCell>
                <mxCell id="3isYHylof7BF-UgM5UAG-1" value="i++" style="whiteSpace=wrap;html=1;rounded=0;" parent="1" vertex="1">
                    <mxGeometry x="168.75" y="250" width="77.5" height="30" as="geometry"/>
                </mxCell>
                <mxCell id="ICkG9NfKEOPINY7M2Be0-7" style="edgeStyle=none;html=1;entryX=1;entryY=0.5;entryDx=0;entryDy=0;" parent="1" source="3isYHylof7BF-UgM5UAG-6" target="9gPu-qE7Jo73VXygzLrJ-1" edge="1">
                    <mxGeometry relative="1" as="geometry">
                        <mxPoint x="350" y="240" as="targetPoint"/>
                        <Array as="points">
                            <mxPoint x="350" y="110"/>
                        </Array>
                    </mxGeometry>
                </mxCell>
                <mxCell id="ICkG9NfKEOPINY7M2Be0-8" value="Y" style="edgeLabel;html=1;align=center;verticalAlign=middle;resizable=0;points=[];" parent="ICkG9NfKEOPINY7M2Be0-7" vertex="1" connectable="0">
                    <mxGeometry x="-0.1356" y="3" relative="1" as="geometry">
                        <mxPoint as="offset"/>
                    </mxGeometry>
                </mxCell>
                <mxCell id="-WtJi_Ey-g6oyORTrOz6-2" value="N" style="edgeStyle=none;html=1;" parent="1" source="3isYHylof7BF-UgM5UAG-6" target="-WtJi_Ey-g6oyORTrOz6-1" edge="1">
                    <mxGeometry relative="1" as="geometry"/>
                </mxCell>
                <mxCell id="3isYHylof7BF-UgM5UAG-6" value="i &amp;lt; 3" style="rhombus;whiteSpace=wrap;html=1;rounded=0;" parent="1" vertex="1">
                    <mxGeometry x="310" y="240" width="80" height="50" as="geometry"/>
                </mxCell>
                <mxCell id="ICkG9NfKEOPINY7M2Be0-2" value="" style="edgeStyle=none;html=1;" parent="1" source="9gPu-qE7Jo73VXygzLrJ-1" target="ICkG9NfKEOPINY7M2Be0-1" edge="1">
                    <mxGeometry relative="1" as="geometry"/>
                </mxCell>
                <UserObject label="process rows" link="data:page/id,RW61uX6UlULjBvguwFE-" id="9gPu-qE7Jo73VXygzLrJ-1">
                    <mxCell style="fontColor=#0000EE;fontStyle=4;rounded=1;overflow=hidden;spacing=10;" parent="1" vertex="1">
                        <mxGeometry x="152.5" y="90" width="110" height="40" as="geometry"/>
                    </mxCell>
                </UserObject>
                <mxCell id="eEsTqKm7XzldBlt4yaOy-2" value="" style="edgeStyle=none;html=1;entryX=0.5;entryY=0;entryDx=0;entryDy=0;" parent="1" source="ICkG9NfKEOPINY7M2Be0-1" target="3isYHylof7BF-UgM5UAG-1" edge="1">
                    <mxGeometry relative="1" as="geometry">
                        <mxPoint x="207.5" y="250" as="targetPoint"/>
                    </mxGeometry>
                </mxCell>
                <UserObject label="process-cols" link="data:page/id,2YcbfFV9qVUKMa1it2oC" id="ICkG9NfKEOPINY7M2Be0-1">
                    <mxCell style="fontColor=#0000EE;fontStyle=4;rounded=1;overflow=hidden;spacing=10;" parent="1" vertex="1">
                        <mxGeometry x="152.5" y="170" width="110" height="40" as="geometry"/>
                    </mxCell>
                </UserObject>
                <UserObject label="main" link="data:page/id,k-r2JrAeV55_jZ8_d6lt" id="Meu1dWvAiIJolJlHXkl9-1">
                    <mxCell style="whiteSpace=wrap;html=1;rounded=0;" parent="1" vertex="1">
                        <mxGeometry x="310" y="400" width="80" height="20" as="geometry"/>
                    </mxCell>
                </UserObject>
                <mxCell id="-WtJi_Ey-g6oyORTrOz6-3" value="" style="edgeStyle=none;html=1;" parent="1" source="-WtJi_Ey-g6oyORTrOz6-1" target="Meu1dWvAiIJolJlHXkl9-1" edge="1">
                    <mxGeometry relative="1" as="geometry"/>
                </mxCell>
                <UserObject label="replace ambiguous &quot;X&quot; with 1" id="-WtJi_Ey-g6oyORTrOz6-1">
                    <mxCell style="fontColor=#0000EE;fontStyle=4;rounded=1;overflow=hidden;spacing=10;" parent="1" vertex="1">
                        <mxGeometry x="250" y="330" width="200" height="40" as="geometry"/>
                    </mxCell>
                </UserObject>
            </root>
        </mxGraphModel>
    </diagram>
    <diagram id="RW61uX6UlULjBvguwFE-" name="process rows">
        <mxGraphModel dx="704" dy="1603" grid="1" gridSize="10" guides="1" tooltips="1" connect="1" arrows="1" fold="1" page="1" pageScale="1" pageWidth="850" pageHeight="1100" math="0" shadow="0">
            <root>
                <mxCell id="0"/>
                <mxCell id="1" parent="0"/>
                <mxCell id="l_JDWMuEKS1xbybnpIDD-3" value="" style="edgeStyle=none;html=1;" parent="1" source="l_JDWMuEKS1xbybnpIDD-4" target="l_JDWMuEKS1xbybnpIDD-7" edge="1">
                    <mxGeometry relative="1" as="geometry"/>
                </mxCell>
                <mxCell id="l_JDWMuEKS1xbybnpIDD-4" value="read xinr[i]" style="whiteSpace=wrap;html=1;rounded=0;" parent="1" vertex="1">
                    <mxGeometry x="190" y="15" width="120" height="40" as="geometry"/>
                </mxCell>
                <mxCell id="YEX30HMRRBimq2AHN_B9-2" value="" style="edgeStyle=none;html=1;exitX=0.5;exitY=1;exitDx=0;exitDy=0;" parent="1" source="l_JDWMuEKS1xbybnpIDD-7" target="YEX30HMRRBimq2AHN_B9-1" edge="1">
                    <mxGeometry relative="1" as="geometry">
                        <Array as="points">
                            <mxPoint x="400" y="90"/>
                        </Array>
                    </mxGeometry>
                </mxCell>
                <mxCell id="YEX30HMRRBimq2AHN_B9-5" value="Y" style="edgeLabel;html=1;align=center;verticalAlign=middle;resizable=0;points=[];" parent="YEX30HMRRBimq2AHN_B9-2" vertex="1" connectable="0">
                    <mxGeometry x="-0.3222" relative="1" as="geometry">
                        <mxPoint as="offset"/>
                    </mxGeometry>
                </mxCell>
                <mxCell id="WIzN2Vl6tYf6vZZTa_nr-2" value="" style="edgeStyle=none;html=1;" parent="1" source="l_JDWMuEKS1xbybnpIDD-7" target="WIzN2Vl6tYf6vZZTa_nr-1" edge="1">
                    <mxGeometry relative="1" as="geometry"/>
                </mxCell>
                <mxCell id="WIzN2Vl6tYf6vZZTa_nr-3" value="N" style="edgeLabel;html=1;align=center;verticalAlign=middle;resizable=0;points=[];" parent="WIzN2Vl6tYf6vZZTa_nr-2" vertex="1" connectable="0">
                    <mxGeometry x="0.4222" y="-2" relative="1" as="geometry">
                        <mxPoint as="offset"/>
                    </mxGeometry>
                </mxCell>
                <mxCell id="l_JDWMuEKS1xbybnpIDD-7" value="xinr[i] == 1" style="rhombus;whiteSpace=wrap;html=1;rounded=0;" parent="1" vertex="1">
                    <mxGeometry x="360" y="-5" width="80" height="80" as="geometry"/>
                </mxCell>
                <mxCell id="l_JDWMuEKS1xbybnpIDD-8" value="" style="edgeStyle=none;html=1;" parent="1" source="l_JDWMuEKS1xbybnpIDD-12" target="l_JDWMuEKS1xbybnpIDD-19" edge="1">
                    <mxGeometry relative="1" as="geometry"/>
                </mxCell>
                <mxCell id="l_JDWMuEKS1xbybnpIDD-9" value="N" style="edgeLabel;html=1;align=center;verticalAlign=middle;resizable=0;points=[];" parent="l_JDWMuEKS1xbybnpIDD-8" vertex="1" connectable="0">
                    <mxGeometry x="-0.4778" y="1" relative="1" as="geometry">
                        <mxPoint as="offset"/>
                    </mxGeometry>
                </mxCell>
                <mxCell id="l_JDWMuEKS1xbybnpIDD-10" value="" style="edgeStyle=none;html=1;" parent="1" source="l_JDWMuEKS1xbybnpIDD-12" target="l_JDWMuEKS1xbybnpIDD-21" edge="1">
                    <mxGeometry relative="1" as="geometry"/>
                </mxCell>
                <mxCell id="l_JDWMuEKS1xbybnpIDD-11" value="Yes" style="edgeLabel;html=1;align=center;verticalAlign=middle;resizable=0;points=[];" parent="l_JDWMuEKS1xbybnpIDD-10" vertex="1" connectable="0">
                    <mxGeometry x="0.2929" y="-2" relative="1" as="geometry">
                        <mxPoint as="offset"/>
                    </mxGeometry>
                </mxCell>
                <mxCell id="l_JDWMuEKS1xbybnpIDD-12" value="x at sqr[i][0]" style="rhombus;whiteSpace=wrap;html=1;rounded=0;" parent="1" vertex="1">
                    <mxGeometry x="65.01" y="130" width="125" height="80" as="geometry"/>
                </mxCell>
                <mxCell id="l_JDWMuEKS1xbybnpIDD-15" value="" style="edgeStyle=none;html=1;entryX=0.5;entryY=0;entryDx=0;entryDy=0;" parent="1" source="l_JDWMuEKS1xbybnpIDD-19" target="l_JDWMuEKS1xbybnpIDD-26" edge="1">
                    <mxGeometry relative="1" as="geometry">
                        <mxPoint x="362.5" y="318" as="targetPoint"/>
                    </mxGeometry>
                </mxCell>
                <mxCell id="l_JDWMuEKS1xbybnpIDD-16" value="Y" style="edgeLabel;html=1;align=center;verticalAlign=middle;resizable=0;points=[];" parent="l_JDWMuEKS1xbybnpIDD-15" vertex="1" connectable="0">
                    <mxGeometry x="0.2444" y="-5" relative="1" as="geometry">
                        <mxPoint as="offset"/>
                    </mxGeometry>
                </mxCell>
                <mxCell id="l_JDWMuEKS1xbybnpIDD-17" value="" style="edgeStyle=none;html=1;" parent="1" source="l_JDWMuEKS1xbybnpIDD-19" target="l_JDWMuEKS1xbybnpIDD-24" edge="1">
                    <mxGeometry relative="1" as="geometry"/>
                </mxCell>
                <mxCell id="l_JDWMuEKS1xbybnpIDD-18" value="N" style="edgeLabel;html=1;align=center;verticalAlign=middle;resizable=0;points=[];" parent="l_JDWMuEKS1xbybnpIDD-17" vertex="1" connectable="0">
                    <mxGeometry x="-0.6" y="-1" relative="1" as="geometry">
                        <mxPoint as="offset"/>
                    </mxGeometry>
                </mxCell>
                <mxCell id="l_JDWMuEKS1xbybnpIDD-19" value="x at sqr[i][1]" style="rhombus;whiteSpace=wrap;html=1;rounded=0;" parent="1" vertex="1">
                    <mxGeometry x="300" y="130" width="125" height="80" as="geometry"/>
                </mxCell>
                <mxCell id="os0uLs5I6S2XNAcsc8Hd-2" style="edgeStyle=none;html=1;exitX=0.5;exitY=1;exitDx=0;exitDy=0;entryX=0.5;entryY=0;entryDx=0;entryDy=0;" parent="1" source="l_JDWMuEKS1xbybnpIDD-21" target="os0uLs5I6S2XNAcsc8Hd-1" edge="1">
                    <mxGeometry relative="1" as="geometry"/>
                </mxCell>
                <mxCell id="l_JDWMuEKS1xbybnpIDD-21" value="xinc[0] = xinc[0] - 1&lt;br&gt;sqr[i][0] = sqr[i][1] - (sqr[i][2] - sqr[i][1])" style="whiteSpace=wrap;html=1;rounded=0;" parent="1" vertex="1">
                    <mxGeometry x="36.26" y="240" width="182.5" height="60" as="geometry"/>
                </mxCell>
                <mxCell id="l_JDWMuEKS1xbybnpIDD-22" value="" style="edgeStyle=none;html=1;exitX=0.5;exitY=1;exitDx=0;exitDy=0;entryX=0.5;entryY=0;entryDx=0;entryDy=0;" parent="1" source="l_JDWMuEKS1xbybnpIDD-24" target="l_JDWMuEKS1xbybnpIDD-28" edge="1">
                    <mxGeometry relative="1" as="geometry">
                        <mxPoint x="563" y="278" as="sourcePoint"/>
                        <mxPoint x="562.7142857142858" y="318" as="targetPoint"/>
                        <Array as="points"/>
                    </mxGeometry>
                </mxCell>
                <mxCell id="l_JDWMuEKS1xbybnpIDD-23" value="Y" style="edgeLabel;html=1;align=center;verticalAlign=middle;resizable=0;points=[];" parent="l_JDWMuEKS1xbybnpIDD-22" vertex="1" connectable="0">
                    <mxGeometry x="-0.5168" relative="1" as="geometry">
                        <mxPoint as="offset"/>
                    </mxGeometry>
                </mxCell>
                <mxCell id="l_JDWMuEKS1xbybnpIDD-24" value="x at sqr[i][1]" style="rhombus;whiteSpace=wrap;html=1;rounded=0;" parent="1" vertex="1">
                    <mxGeometry x="510" y="130" width="125" height="80" as="geometry"/>
                </mxCell>
                <mxCell id="os0uLs5I6S2XNAcsc8Hd-3" value="" style="edgeStyle=none;html=1;" parent="1" source="l_JDWMuEKS1xbybnpIDD-26" target="os0uLs5I6S2XNAcsc8Hd-1" edge="1">
                    <mxGeometry relative="1" as="geometry"/>
                </mxCell>
                <mxCell id="l_JDWMuEKS1xbybnpIDD-26" value="xinc[1] = xinc[1] - 1&lt;br&gt;sqr[i][1] = (sqr[i][0] + sqr[i][2]) / 2" style="whiteSpace=wrap;html=1;rounded=0;" parent="1" vertex="1">
                    <mxGeometry x="271.25" y="240" width="182.5" height="60" as="geometry"/>
                </mxCell>
                <mxCell id="os0uLs5I6S2XNAcsc8Hd-4" style="edgeStyle=none;html=1;exitX=0.5;exitY=1;exitDx=0;exitDy=0;entryX=0.5;entryY=0;entryDx=0;entryDy=0;" parent="1" source="l_JDWMuEKS1xbybnpIDD-28" target="os0uLs5I6S2XNAcsc8Hd-1" edge="1">
                    <mxGeometry relative="1" as="geometry"/>
                </mxCell>
                <mxCell id="l_JDWMuEKS1xbybnpIDD-28" value="xinc[2] = xinc[2] - 1&lt;br&gt;sqr[i][2] = sqr[i][1] + (sqr[i][1] - sqr[i][0])" style="whiteSpace=wrap;html=1;rounded=0;" parent="1" vertex="1">
                    <mxGeometry x="481.25" y="240" width="182.5" height="60" as="geometry"/>
                </mxCell>
                <mxCell id="YEX30HMRRBimq2AHN_B9-3" value="" style="edgeStyle=none;html=1;" parent="1" source="YEX30HMRRBimq2AHN_B9-1" target="l_JDWMuEKS1xbybnpIDD-12" edge="1">
                    <mxGeometry relative="1" as="geometry"/>
                </mxCell>
                <mxCell id="YEX30HMRRBimq2AHN_B9-1" value="numX =&amp;nbsp; numX - 1&lt;br&gt;xinr[i] = xinr[i] - 1" style="whiteSpace=wrap;html=1;rounded=0;" parent="1" vertex="1">
                    <mxGeometry x="70.63" y="70" width="113.75" height="40" as="geometry"/>
                </mxCell>
                <UserObject label="process cols" link="data:page/id,2YcbfFV9qVUKMa1it2oC" id="WIzN2Vl6tYf6vZZTa_nr-1">
                    <mxCell style="whiteSpace=wrap;html=1;rounded=0;" parent="1" vertex="1">
                        <mxGeometry x="500" y="22.5" width="90" height="25" as="geometry"/>
                    </mxCell>
                </UserObject>
                <UserObject label="main" link="data:page/id,k-r2JrAeV55_jZ8_d6lt" id="os0uLs5I6S2XNAcsc8Hd-1">
                    <mxCell style="whiteSpace=wrap;html=1;" parent="1" vertex="1">
                        <mxGeometry x="318.75" y="340" width="87.5" height="30" as="geometry"/>
                    </mxCell>
                </UserObject>
            </root>
        </mxGraphModel>
    </diagram>
    <diagram id="2YcbfFV9qVUKMa1it2oC" name="process-cols">
        <mxGraphModel dx="704" dy="1603" grid="1" gridSize="10" guides="1" tooltips="1" connect="1" arrows="1" fold="1" page="1" pageScale="1" pageWidth="850" pageHeight="1100" math="0" shadow="0">
            <root>
                <mxCell id="0"/>
                <mxCell id="1" parent="0"/>
                <mxCell id="2ulUjW8-Xdq7wTCIfKnG-1" value="" style="edgeStyle=none;html=1;" parent="1" source="2ulUjW8-Xdq7wTCIfKnG-2" target="2ulUjW8-Xdq7wTCIfKnG-5" edge="1">
                    <mxGeometry relative="1" as="geometry"/>
                </mxCell>
                <mxCell id="2ulUjW8-Xdq7wTCIfKnG-2" value="read xinc[i]" style="whiteSpace=wrap;html=1;rounded=0;" parent="1" vertex="1">
                    <mxGeometry x="190" y="15" width="120" height="40" as="geometry"/>
                </mxCell>
                <mxCell id="2ulUjW8-Xdq7wTCIfKnG-3" value="" style="edgeStyle=none;html=1;exitX=0.5;exitY=1;exitDx=0;exitDy=0;" parent="1" source="2ulUjW8-Xdq7wTCIfKnG-5" target="2ulUjW8-Xdq7wTCIfKnG-23" edge="1">
                    <mxGeometry relative="1" as="geometry">
                        <Array as="points">
                            <mxPoint x="400" y="90"/>
                        </Array>
                    </mxGeometry>
                </mxCell>
                <mxCell id="2ulUjW8-Xdq7wTCIfKnG-4" value="Y" style="edgeLabel;html=1;align=center;verticalAlign=middle;resizable=0;points=[];" parent="2ulUjW8-Xdq7wTCIfKnG-3" vertex="1" connectable="0">
                    <mxGeometry x="-0.3222" relative="1" as="geometry">
                        <mxPoint as="offset"/>
                    </mxGeometry>
                </mxCell>
                <mxCell id="N1hFEZ4KkNvCeTainbQ0-3" value="" style="edgeStyle=none;html=1;" parent="1" source="2ulUjW8-Xdq7wTCIfKnG-5" target="N1hFEZ4KkNvCeTainbQ0-2" edge="1">
                    <mxGeometry relative="1" as="geometry"/>
                </mxCell>
                <mxCell id="2ulUjW8-Xdq7wTCIfKnG-5" value="xinc[i] == 1" style="rhombus;whiteSpace=wrap;html=1;rounded=0;" parent="1" vertex="1">
                    <mxGeometry x="360" y="-5" width="80" height="80" as="geometry"/>
                </mxCell>
                <mxCell id="2ulUjW8-Xdq7wTCIfKnG-6" value="" style="edgeStyle=none;html=1;" parent="1" source="2ulUjW8-Xdq7wTCIfKnG-10" target="2ulUjW8-Xdq7wTCIfKnG-15" edge="1">
                    <mxGeometry relative="1" as="geometry"/>
                </mxCell>
                <mxCell id="2ulUjW8-Xdq7wTCIfKnG-7" value="N" style="edgeLabel;html=1;align=center;verticalAlign=middle;resizable=0;points=[];" parent="2ulUjW8-Xdq7wTCIfKnG-6" vertex="1" connectable="0">
                    <mxGeometry x="-0.4778" y="1" relative="1" as="geometry">
                        <mxPoint as="offset"/>
                    </mxGeometry>
                </mxCell>
                <mxCell id="2ulUjW8-Xdq7wTCIfKnG-8" value="" style="edgeStyle=none;html=1;" parent="1" source="2ulUjW8-Xdq7wTCIfKnG-10" target="2ulUjW8-Xdq7wTCIfKnG-16" edge="1">
                    <mxGeometry relative="1" as="geometry"/>
                </mxCell>
                <mxCell id="2ulUjW8-Xdq7wTCIfKnG-9" value="Yes" style="edgeLabel;html=1;align=center;verticalAlign=middle;resizable=0;points=[];" parent="2ulUjW8-Xdq7wTCIfKnG-8" vertex="1" connectable="0">
                    <mxGeometry x="0.2929" y="-2" relative="1" as="geometry">
                        <mxPoint as="offset"/>
                    </mxGeometry>
                </mxCell>
                <mxCell id="2ulUjW8-Xdq7wTCIfKnG-10" value="x at sqr[0][i]" style="rhombus;whiteSpace=wrap;html=1;rounded=0;" parent="1" vertex="1">
                    <mxGeometry x="64.99" y="130" width="125" height="80" as="geometry"/>
                </mxCell>
                <mxCell id="2ulUjW8-Xdq7wTCIfKnG-13" value="" style="edgeStyle=none;html=1;" parent="1" source="2ulUjW8-Xdq7wTCIfKnG-15" target="2ulUjW8-Xdq7wTCIfKnG-19" edge="1">
                    <mxGeometry relative="1" as="geometry"/>
                </mxCell>
                <mxCell id="2ulUjW8-Xdq7wTCIfKnG-14" value="N" style="edgeLabel;html=1;align=center;verticalAlign=middle;resizable=0;points=[];" parent="2ulUjW8-Xdq7wTCIfKnG-13" vertex="1" connectable="0">
                    <mxGeometry x="-0.6" y="-1" relative="1" as="geometry">
                        <mxPoint as="offset"/>
                    </mxGeometry>
                </mxCell>
                <mxCell id="wmlMtcXvx1480yRjvort-4" value="Y" style="edgeStyle=none;html=1;" parent="1" source="2ulUjW8-Xdq7wTCIfKnG-15" target="2ulUjW8-Xdq7wTCIfKnG-20" edge="1">
                    <mxGeometry relative="1" as="geometry"/>
                </mxCell>
                <mxCell id="2ulUjW8-Xdq7wTCIfKnG-15" value="x at sqr[1][i]" style="rhombus;whiteSpace=wrap;html=1;rounded=0;" parent="1" vertex="1">
                    <mxGeometry x="300" y="130" width="125" height="80" as="geometry"/>
                </mxCell>
                <mxCell id="XYD2cGtxHLReYWjDsmUN-2" style="edgeStyle=none;html=1;exitX=0.5;exitY=1;exitDx=0;exitDy=0;entryX=0.5;entryY=0;entryDx=0;entryDy=0;" parent="1" source="2ulUjW8-Xdq7wTCIfKnG-16" target="XYD2cGtxHLReYWjDsmUN-1" edge="1">
                    <mxGeometry relative="1" as="geometry"/>
                </mxCell>
                <mxCell id="2ulUjW8-Xdq7wTCIfKnG-16" value="xinr[0] = xinr[0] - 1&lt;br&gt;sqr[0][i] = sqr[1][i] - (sqr[2][i] - sqr[1][i])" style="whiteSpace=wrap;html=1;rounded=0;" parent="1" vertex="1">
                    <mxGeometry x="36.24" y="240" width="182.5" height="60" as="geometry"/>
                </mxCell>
                <mxCell id="2ulUjW8-Xdq7wTCIfKnG-17" value="" style="edgeStyle=none;html=1;exitX=0.5;exitY=1;exitDx=0;exitDy=0;entryX=0.5;entryY=0;entryDx=0;entryDy=0;" parent="1" source="2ulUjW8-Xdq7wTCIfKnG-19" target="2ulUjW8-Xdq7wTCIfKnG-21" edge="1">
                    <mxGeometry relative="1" as="geometry">
                        <mxPoint x="563" y="278" as="sourcePoint"/>
                        <mxPoint x="562.7142857142858" y="318" as="targetPoint"/>
                        <Array as="points"/>
                    </mxGeometry>
                </mxCell>
                <mxCell id="2ulUjW8-Xdq7wTCIfKnG-18" value="Y" style="edgeLabel;html=1;align=center;verticalAlign=middle;resizable=0;points=[];" parent="2ulUjW8-Xdq7wTCIfKnG-17" vertex="1" connectable="0">
                    <mxGeometry x="-0.5168" relative="1" as="geometry">
                        <mxPoint as="offset"/>
                    </mxGeometry>
                </mxCell>
                <mxCell id="2ulUjW8-Xdq7wTCIfKnG-19" value="x at sqr[2][i]" style="rhombus;whiteSpace=wrap;html=1;rounded=0;" parent="1" vertex="1">
                    <mxGeometry x="510" y="130" width="125" height="80" as="geometry"/>
                </mxCell>
                <mxCell id="XYD2cGtxHLReYWjDsmUN-4" style="edgeStyle=none;html=1;exitX=0.5;exitY=1;exitDx=0;exitDy=0;entryX=0.5;entryY=0;entryDx=0;entryDy=0;" parent="1" source="2ulUjW8-Xdq7wTCIfKnG-21" target="XYD2cGtxHLReYWjDsmUN-1" edge="1">
                    <mxGeometry relative="1" as="geometry"/>
                </mxCell>
                <mxCell id="2ulUjW8-Xdq7wTCIfKnG-21" value="xinr[2] = xinr[2] - 1&lt;br&gt;sqr[2][i] = sqr[1][i] + (sqr[1][i] - sqr[0][i])" style="whiteSpace=wrap;html=1;rounded=0;" parent="1" vertex="1">
                    <mxGeometry x="481.25" y="240" width="182.5" height="60" as="geometry"/>
                </mxCell>
                <mxCell id="2ulUjW8-Xdq7wTCIfKnG-22" value="" style="edgeStyle=none;html=1;" parent="1" source="2ulUjW8-Xdq7wTCIfKnG-23" target="2ulUjW8-Xdq7wTCIfKnG-10" edge="1">
                    <mxGeometry relative="1" as="geometry"/>
                </mxCell>
                <mxCell id="2ulUjW8-Xdq7wTCIfKnG-23" value="numX =&amp;nbsp; numX - 1&lt;br&gt;xinc[i] = xinc[i] - 1" style="whiteSpace=wrap;html=1;rounded=0;" parent="1" vertex="1">
                    <mxGeometry x="70.61999999999999" y="70" width="113.75" height="40" as="geometry"/>
                </mxCell>
                <mxCell id="N1hFEZ4KkNvCeTainbQ0-1" value="N" style="edgeLabel;html=1;align=center;verticalAlign=middle;resizable=0;points=[];" parent="1" vertex="1" connectable="0">
                    <mxGeometry x="483" y="37" as="geometry"/>
                </mxCell>
                <UserObject label="replace ambiguous &quot;X&quot; with 0" link="data:page/id,Qgk8W_iD4lTr3aD-YQSL" id="N1hFEZ4KkNvCeTainbQ0-2">
                    <mxCell style="whiteSpace=wrap;html=1;rounded=0;" parent="1" vertex="1">
                        <mxGeometry x="500" y="16.25" width="110" height="37.5" as="geometry"/>
                    </mxCell>
                </UserObject>
                <mxCell id="XYD2cGtxHLReYWjDsmUN-3" value="" style="edgeStyle=none;html=1;" parent="1" source="2ulUjW8-Xdq7wTCIfKnG-20" target="XYD2cGtxHLReYWjDsmUN-1" edge="1">
                    <mxGeometry relative="1" as="geometry"/>
                </mxCell>
                <mxCell id="2ulUjW8-Xdq7wTCIfKnG-20" value="xinr[1] = xinr[1] - 1&lt;br&gt;sqr[1][i] = (sqr[0][i] + sqr[2][1]) / 2" style="whiteSpace=wrap;html=1;rounded=0;" parent="1" vertex="1">
                    <mxGeometry x="271.25" y="240" width="182.5" height="60" as="geometry"/>
                </mxCell>
                <UserObject label="main" id="XYD2cGtxHLReYWjDsmUN-1">
                    <mxCell style="whiteSpace=wrap;html=1;" parent="1" vertex="1">
                        <mxGeometry x="318.75" y="340" width="87.5" height="30" as="geometry"/>
                    </mxCell>
                </UserObject>
            </root>
        </mxGraphModel>
    </diagram>
    <diagram id="BG_ahhNSkBaEuJg63uCC" name="replace ambiguous &quot;X&quot; with 0">
        <mxGraphModel dx="916" dy="433" grid="1" gridSize="10" guides="1" tooltips="1" connect="1" arrows="1" fold="1" page="1" pageScale="1" pageWidth="850" pageHeight="1100" math="0" shadow="0">
            <root>
                <mxCell id="0"/>
                <mxCell id="1" parent="0"/>
                <mxCell id="MSuhkY2q36MbRdDXMNTB-2" value="" style="edgeStyle=none;html=1;" edge="1" parent="1" source="cKFGP652Uyl6jYyJmtVc-1" target="MSuhkY2q36MbRdDXMNTB-1">
                    <mxGeometry relative="1" as="geometry"/>
                </mxCell>
                <mxCell id="lXYocpIuPWn-4z8DEfAE-1" value="N" style="edgeLabel;html=1;align=center;verticalAlign=middle;resizable=0;points=[];" vertex="1" connectable="0" parent="MSuhkY2q36MbRdDXMNTB-2">
                    <mxGeometry x="-0.274" y="-1" relative="1" as="geometry">
                        <mxPoint as="offset"/>
                    </mxGeometry>
                </mxCell>
                <mxCell id="lXYocpIuPWn-4z8DEfAE-6" value="Y" style="edgeStyle=none;html=1;" edge="1" parent="1" source="cKFGP652Uyl6jYyJmtVc-1" target="EE5Hheo-3DT-cwvWpOgg-1">
                    <mxGeometry relative="1" as="geometry"/>
                </mxCell>
                <mxCell id="cKFGP652Uyl6jYyJmtVc-1" value="sqr[1][1] ==&amp;nbsp;&lt;span style=&quot;color: rgb(156, 220, 254); background-color: rgb(31, 31, 31); font-family: Consolas, &amp;quot;Courier New&amp;quot;, monospace; font-size: 14px;&quot;&gt;inf&lt;/span&gt;&lt;span style=&quot;color: rgb(156, 220, 254); background-color: rgb(31, 31, 31); font-family: Consolas, &amp;quot;Courier New&amp;quot;, monospace; font-size: 14px;&quot;&gt;&lt;br&gt;&lt;/span&gt;" style="rhombus;whiteSpace=wrap;html=1;" vertex="1" parent="1">
                    <mxGeometry x="10" y="37.5" width="113" height="70" as="geometry"/>
                </mxCell>
                <mxCell id="MSuhkY2q36MbRdDXMNTB-10" value="" style="edgeStyle=none;html=1;" edge="1" parent="1" source="MSuhkY2q36MbRdDXMNTB-1" target="MSuhkY2q36MbRdDXMNTB-9">
                    <mxGeometry relative="1" as="geometry"/>
                </mxCell>
                <mxCell id="lXYocpIuPWn-4z8DEfAE-2" value="N" style="edgeLabel;html=1;align=center;verticalAlign=middle;resizable=0;points=[];" vertex="1" connectable="0" parent="MSuhkY2q36MbRdDXMNTB-10">
                    <mxGeometry x="-0.2749" relative="1" as="geometry">
                        <mxPoint as="offset"/>
                    </mxGeometry>
                </mxCell>
                <mxCell id="lXYocpIuPWn-4z8DEfAE-12" value="Y" style="edgeStyle=none;html=1;" edge="1" parent="1" source="MSuhkY2q36MbRdDXMNTB-1" target="lXYocpIuPWn-4z8DEfAE-7">
                    <mxGeometry relative="1" as="geometry"/>
                </mxCell>
                <mxCell id="MSuhkY2q36MbRdDXMNTB-1" value="sqr[0][1] ==&amp;nbsp;&lt;span style=&quot;color: rgb(156, 220, 254); background-color: rgb(31, 31, 31); font-family: Consolas, &amp;quot;Courier New&amp;quot;, monospace; font-size: 14px;&quot;&gt;inf&lt;br&gt;&lt;/span&gt;" style="rhombus;whiteSpace=wrap;html=1;" vertex="1" parent="1">
                    <mxGeometry x="153" y="37.5" width="112" height="70" as="geometry"/>
                </mxCell>
                <mxCell id="MSuhkY2q36MbRdDXMNTB-12" value="" style="edgeStyle=none;html=1;" edge="1" parent="1" source="MSuhkY2q36MbRdDXMNTB-9" target="MSuhkY2q36MbRdDXMNTB-11">
                    <mxGeometry relative="1" as="geometry"/>
                </mxCell>
                <mxCell id="lXYocpIuPWn-4z8DEfAE-3" value="N" style="edgeLabel;html=1;align=center;verticalAlign=middle;resizable=0;points=[];" vertex="1" connectable="0" parent="MSuhkY2q36MbRdDXMNTB-12">
                    <mxGeometry x="-0.2824" relative="1" as="geometry">
                        <mxPoint as="offset"/>
                    </mxGeometry>
                </mxCell>
                <mxCell id="lXYocpIuPWn-4z8DEfAE-13" value="Y" style="edgeStyle=none;html=1;" edge="1" parent="1" source="MSuhkY2q36MbRdDXMNTB-9" target="lXYocpIuPWn-4z8DEfAE-8">
                    <mxGeometry relative="1" as="geometry"/>
                </mxCell>
                <mxCell id="MSuhkY2q36MbRdDXMNTB-9" value="sqr[2][1] ==&amp;nbsp;&lt;span style=&quot;color: rgb(156, 220, 254); background-color: rgb(31, 31, 31); font-family: Consolas, &amp;quot;Courier New&amp;quot;, monospace; font-size: 14px;&quot;&gt;inf&lt;/span&gt;" style="rhombus;whiteSpace=wrap;html=1;" vertex="1" parent="1">
                    <mxGeometry x="298" y="37.5" width="115" height="70" as="geometry"/>
                </mxCell>
                <mxCell id="MSuhkY2q36MbRdDXMNTB-14" value="" style="edgeStyle=none;html=1;" edge="1" parent="1" source="MSuhkY2q36MbRdDXMNTB-11" target="MSuhkY2q36MbRdDXMNTB-13">
                    <mxGeometry relative="1" as="geometry"/>
                </mxCell>
                <mxCell id="lXYocpIuPWn-4z8DEfAE-4" value="N" style="edgeLabel;html=1;align=center;verticalAlign=middle;resizable=0;points=[];" vertex="1" connectable="0" parent="MSuhkY2q36MbRdDXMNTB-14">
                    <mxGeometry x="-0.1817" y="-3" relative="1" as="geometry">
                        <mxPoint as="offset"/>
                    </mxGeometry>
                </mxCell>
                <mxCell id="lXYocpIuPWn-4z8DEfAE-14" value="Y" style="edgeStyle=none;html=1;" edge="1" parent="1" source="MSuhkY2q36MbRdDXMNTB-11" target="lXYocpIuPWn-4z8DEfAE-9">
                    <mxGeometry relative="1" as="geometry"/>
                </mxCell>
                <mxCell id="MSuhkY2q36MbRdDXMNTB-11" value="sqr[1][0] ==&amp;nbsp;&lt;span style=&quot;color: rgb(156, 220, 254); background-color: rgb(31, 31, 31); font-family: Consolas, &amp;quot;Courier New&amp;quot;, monospace; font-size: 14px;&quot;&gt;inf&lt;/span&gt;" style="rhombus;whiteSpace=wrap;html=1;" vertex="1" parent="1">
                    <mxGeometry x="443" y="37.5" width="110" height="70" as="geometry"/>
                </mxCell>
                <mxCell id="MSuhkY2q36MbRdDXMNTB-16" value="" style="edgeStyle=none;html=1;" edge="1" parent="1" source="MSuhkY2q36MbRdDXMNTB-13" target="MSuhkY2q36MbRdDXMNTB-15">
                    <mxGeometry relative="1" as="geometry"/>
                </mxCell>
                <mxCell id="lXYocpIuPWn-4z8DEfAE-5" value="N" style="edgeLabel;html=1;align=center;verticalAlign=middle;resizable=0;points=[];" vertex="1" connectable="0" parent="MSuhkY2q36MbRdDXMNTB-16">
                    <mxGeometry x="-0.2213" y="-1" relative="1" as="geometry">
                        <mxPoint as="offset"/>
                    </mxGeometry>
                </mxCell>
                <mxCell id="lXYocpIuPWn-4z8DEfAE-15" value="Y" style="edgeStyle=none;html=1;" edge="1" parent="1" source="MSuhkY2q36MbRdDXMNTB-13" target="lXYocpIuPWn-4z8DEfAE-10">
                    <mxGeometry relative="1" as="geometry"/>
                </mxCell>
                <mxCell id="MSuhkY2q36MbRdDXMNTB-13" value="sqr[1][2] ==&amp;nbsp;&lt;span style=&quot;color: rgb(156, 220, 254); background-color: rgb(31, 31, 31); font-family: Consolas, &amp;quot;Courier New&amp;quot;, monospace; font-size: 14px;&quot;&gt;inf&lt;/span&gt;" style="rhombus;whiteSpace=wrap;html=1;" vertex="1" parent="1">
                    <mxGeometry x="583" y="36.25" width="110" height="72.5" as="geometry"/>
                </mxCell>
                <mxCell id="lXYocpIuPWn-4z8DEfAE-16" value="Y" style="edgeStyle=none;html=1;" edge="1" parent="1" source="MSuhkY2q36MbRdDXMNTB-15" target="lXYocpIuPWn-4z8DEfAE-11">
                    <mxGeometry relative="1" as="geometry"/>
                </mxCell>
                <mxCell id="lXYocpIuPWn-4z8DEfAE-27" style="edgeStyle=none;html=1;exitX=1;exitY=0.5;exitDx=0;exitDy=0;entryX=1;entryY=0.5;entryDx=0;entryDy=0;" edge="1" parent="1" source="MSuhkY2q36MbRdDXMNTB-15" target="mPg2Z8yRMPw0zO6KAHYA-1">
                    <mxGeometry relative="1" as="geometry">
                        <Array as="points">
                            <mxPoint x="840" y="70"/>
                            <mxPoint x="840" y="180"/>
                            <mxPoint x="840" y="290"/>
                        </Array>
                    </mxGeometry>
                </mxCell>
                <mxCell id="lXYocpIuPWn-4z8DEfAE-28" value="N" style="edgeLabel;html=1;align=center;verticalAlign=middle;resizable=0;points=[];" vertex="1" connectable="0" parent="lXYocpIuPWn-4z8DEfAE-27">
                    <mxGeometry x="-0.7872" y="1" relative="1" as="geometry">
                        <mxPoint as="offset"/>
                    </mxGeometry>
                </mxCell>
                <mxCell id="MSuhkY2q36MbRdDXMNTB-15" value="sqr[0][0] ==&amp;nbsp;&lt;span style=&quot;color: rgb(156, 220, 254); background-color: rgb(31, 31, 31); font-family: Consolas, &amp;quot;Courier New&amp;quot;, monospace; font-size: 14px;&quot;&gt;inf&lt;/span&gt;" style="rhombus;whiteSpace=wrap;html=1;" vertex="1" parent="1">
                    <mxGeometry x="726.5" y="37.5" width="110" height="75" as="geometry"/>
                </mxCell>
                <UserObject label="main" link="data:page/id,k-r2JrAeV55_jZ8_d6lt" id="mPg2Z8yRMPw0zO6KAHYA-1">
                    <mxCell style="rounded=0;whiteSpace=wrap;html=1;" vertex="1" parent="1">
                        <mxGeometry x="351" y="270" width="135" height="40" as="geometry"/>
                    </mxCell>
                </UserObject>
                <mxCell id="lXYocpIuPWn-4z8DEfAE-21" style="edgeStyle=none;html=1;exitX=0.5;exitY=1;exitDx=0;exitDy=0;entryX=0.5;entryY=0;entryDx=0;entryDy=0;" edge="1" parent="1" source="EE5Hheo-3DT-cwvWpOgg-1" target="mPg2Z8yRMPw0zO6KAHYA-1">
                    <mxGeometry relative="1" as="geometry"/>
                </mxCell>
                <mxCell id="EE5Hheo-3DT-cwvWpOgg-1" value="sqr[0][1] = 0&lt;br&gt;xinr[0] = xinr[0] - 1&lt;br&gt;xinc[1] = xinc[1] - 1" style="rounded=0;whiteSpace=wrap;html=1;" vertex="1" parent="1">
                    <mxGeometry x="12.5" y="140" width="108" height="60" as="geometry"/>
                </mxCell>
                <mxCell id="lXYocpIuPWn-4z8DEfAE-19" style="edgeStyle=none;html=1;entryX=0.5;entryY=0;entryDx=0;entryDy=0;" edge="1" parent="1" source="lXYocpIuPWn-4z8DEfAE-7" target="mPg2Z8yRMPw0zO6KAHYA-1">
                    <mxGeometry relative="1" as="geometry"/>
                </mxCell>
                <mxCell id="lXYocpIuPWn-4z8DEfAE-7" value="sqr[1][1] = 0&lt;br&gt;xinr[1] = xinr[1] - 1&lt;br&gt;xinc[1] = xinc[1] - 1" style="rounded=0;whiteSpace=wrap;html=1;" vertex="1" parent="1">
                    <mxGeometry x="156.25" y="140" width="105.5" height="60" as="geometry"/>
                </mxCell>
                <mxCell id="lXYocpIuPWn-4z8DEfAE-24" style="edgeStyle=none;html=1;exitX=0.5;exitY=1;exitDx=0;exitDy=0;entryX=0.5;entryY=0;entryDx=0;entryDy=0;" edge="1" parent="1" source="lXYocpIuPWn-4z8DEfAE-8" target="mPg2Z8yRMPw0zO6KAHYA-1">
                    <mxGeometry relative="1" as="geometry"/>
                </mxCell>
                <mxCell id="lXYocpIuPWn-4z8DEfAE-8" value="sqr[2][1] = 0&lt;br&gt;xinr[2] = xinr[2] - 1&lt;br&gt;xinc[1] = xinc[1] - 1" style="rounded=0;whiteSpace=wrap;html=1;" vertex="1" parent="1">
                    <mxGeometry x="301" y="140" width="109" height="60" as="geometry"/>
                </mxCell>
                <mxCell id="lXYocpIuPWn-4z8DEfAE-25" style="edgeStyle=none;html=1;exitX=0.5;exitY=1;exitDx=0;exitDy=0;entryX=0.5;entryY=0;entryDx=0;entryDy=0;" edge="1" parent="1" source="lXYocpIuPWn-4z8DEfAE-9" target="mPg2Z8yRMPw0zO6KAHYA-1">
                    <mxGeometry relative="1" as="geometry"/>
                </mxCell>
                <mxCell id="lXYocpIuPWn-4z8DEfAE-9" value="sqr[1][0] = 0&lt;br&gt;xinr[1] = xinr[1] - 1&lt;br&gt;xinc[0] = xinc[0] - 1" style="rounded=0;whiteSpace=wrap;html=1;" vertex="1" parent="1">
                    <mxGeometry x="444.75" y="140" width="106.5" height="60" as="geometry"/>
                </mxCell>
                <mxCell id="lXYocpIuPWn-4z8DEfAE-23" style="edgeStyle=none;html=1;exitX=0.5;exitY=1;exitDx=0;exitDy=0;entryX=0.5;entryY=0;entryDx=0;entryDy=0;" edge="1" parent="1" source="lXYocpIuPWn-4z8DEfAE-10" target="mPg2Z8yRMPw0zO6KAHYA-1">
                    <mxGeometry relative="1" as="geometry"/>
                </mxCell>
                <mxCell id="lXYocpIuPWn-4z8DEfAE-10" value="sqr[1][2] = 0&lt;br&gt;xinr[1] = xinr[1] - 1&lt;br&gt;xinc[2] = xinc[2] - 1" style="rounded=0;whiteSpace=wrap;html=1;" vertex="1" parent="1">
                    <mxGeometry x="586.5" y="140" width="106.5" height="60" as="geometry"/>
                </mxCell>
                <mxCell id="lXYocpIuPWn-4z8DEfAE-26" style="edgeStyle=none;html=1;exitX=0.5;exitY=1;exitDx=0;exitDy=0;entryX=0.5;entryY=0;entryDx=0;entryDy=0;" edge="1" parent="1" source="lXYocpIuPWn-4z8DEfAE-11" target="mPg2Z8yRMPw0zO6KAHYA-1">
                    <mxGeometry relative="1" as="geometry"/>
                </mxCell>
                <mxCell id="lXYocpIuPWn-4z8DEfAE-11" value="sqr[0][0] = 0&lt;br&gt;xinr[0] = xinr[0] - 1&lt;br&gt;xinc[0] = xinc[0] - 1" style="rounded=0;whiteSpace=wrap;html=1;" vertex="1" parent="1">
                    <mxGeometry x="726.5" y="140" width="106.5" height="60" as="geometry"/>
                </mxCell>
            </root>
        </mxGraphModel>
    </diagram>
</mxfile>